<svg xmlns="http://www.w3.org/2000/svg" width="888" height="200" viewBox="0 0 888 200">
  <path fill="none" d="M226.429 144.596h435.143v34.538H226.429z"/>
  <path fill="#88C0D0" d="M228.858 144.596h1.35l21.959 31.004h.09v-31.004h.9v32.129h-1.35l-21.959-31.004h-.09v31.004h-.9v-32.129zm38.43 8.461c6.75 0 10.395 5.805 10.395 12.104 0 6.346-3.645 12.105-10.44 12.105-6.75 0-10.395-5.76-10.395-12.105 0-6.3 3.645-12.104 10.44-12.104zm0 23.308c6.165 0 9.495-5.355 9.495-11.205 0-5.76-3.33-11.205-9.495-11.205-6.255 0-9.54 5.445-9.54 11.205.001 5.85 3.285 11.205 9.54 11.205zm15.03.36h-.9v-23.129h.9v5.715h.09c.855-3.42 3.555-6.434 9.09-6.254v.898c-6.345-.314-9.18 4.637-9.18 9.676v13.094zm28.754-32.129h.9v32.129h-.9v-6.479h-.09c-1.17 4.049-4.545 7.02-9.27 7.02-6.12 0-9.855-5.086-9.855-12.061 0-6.479 3.465-12.148 9.855-12.148 4.905 0 8.189 2.834 9.27 7.02h.09v-15.481zm-9.36 9.359c-6.345 0-8.955 5.896-8.955 11.25 0 5.939 2.97 11.16 8.955 11.16 5.939 0 9.359-5.176 9.359-11.16.001-7.154-3.734-11.25-9.359-11.25z"/>
  <path fill="#2E3440" d="M357.96 176.725h-2.205l-.405-5.85h-.09c-2.16 4.59-6.479 6.525-11.114 6.525-10.125 0-15.165-7.965-15.165-16.74 0-8.773 5.04-16.738 15.165-16.738 6.75 0 12.239 3.645 13.41 10.664h-3.06c-.405-3.689-4.23-8.055-10.35-8.055-8.505 0-12.104 7.109-12.104 14.129s3.6 14.131 12.104 14.131c7.109 0 11.25-4.996 11.114-11.791h-10.935v-2.609h13.634v16.334zm5.852-32.129h3.419l18.72 27.18h.09v-27.18h3.06v32.129h-3.419l-18.72-27.178h-.09v27.178h-3.06v-32.129zm45.179-.674c10.079 0 15.119 7.965 15.119 16.738 0 8.775-5.04 16.74-15.119 16.74-10.125 0-15.164-7.965-15.164-16.74 0-8.773 5.039-16.738 15.164-16.738zm0 30.869c8.46 0 12.06-7.111 12.06-14.131s-3.6-14.129-12.06-14.129c-8.505 0-12.104 7.109-12.104 14.129s3.599 14.131 12.104 14.131zm19.8-30.195h4.5l11.115 28.17 11.069-28.17h4.5v32.129h-3.061v-27.764h-.09l-10.979 27.764h-2.88l-11.024-27.764h-.09v27.764h-3.061v-32.129zm37.574 0h22.184v2.611h-19.123v11.609h17.908v2.609h-17.908v12.689h19.35v2.609h-22.41v-32.127zm35.731 0h25.469v2.611H516.36v29.518h-3.061v-29.518h-11.203v-2.611zm24.613 21.285c.045 4.139 2.205 9.135 7.65 9.135 4.139 0 6.389-2.43 7.289-5.939h2.834c-1.215 5.264-4.273 8.324-10.123 8.324-7.381 0-10.484-5.67-10.484-12.285 0-6.119 3.104-12.283 10.484-12.283 7.469 0 10.439 6.523 10.215 13.049h-17.865zm15.029-2.385c-.135-4.275-2.789-8.279-7.379-8.279-4.635 0-7.201 4.049-7.65 8.279h15.029zm6.66-9.99h2.609v5.445h.09c1.441-3.734 4.59-5.939 8.775-5.76v2.834c-5.129-.27-8.639 3.51-8.639 8.326v12.373h-2.836v-23.218zm14.176 0h2.609v3.914h.135c1.484-2.789 3.914-4.588 7.605-4.588 3.059 0 5.805 1.484 6.658 4.543 1.396-3.059 4.32-4.543 7.381-4.543 5.084 0 7.693 2.654 7.693 8.145v15.748h-2.834v-15.613c0-3.826-1.439-5.895-5.49-5.895-4.904 0-6.299 4.049-6.299 8.369v13.139h-2.836v-15.748c.045-3.15-1.26-5.76-4.859-5.76-4.904 0-6.885 3.689-6.93 8.549v12.959h-2.834v-23.219zm37.53-8.91h2.834v4.545h-2.834v-4.545zm0 8.91h2.834v23.219h-2.834v-23.219zm8.234 0h2.836v4.006h.09c1.033-2.791 4.139-4.68 7.424-4.68 6.525 0 8.504 3.418 8.504 8.953v14.939h-2.834v-14.488c0-4.006-1.305-7.02-5.895-7.02-4.5 0-7.199 3.42-7.289 7.963v13.545h-2.836v-23.218zm23.939 7.109c.27-5.443 4.094-7.783 9.404-7.783 4.096 0 8.549 1.26 8.549 7.469v12.33c0 1.08.541 1.709 1.666 1.709.314 0 .674-.09.9-.18v2.385c-.631.135-1.08.18-1.846.18-2.879 0-3.33-1.619-3.33-4.049h-.09c-1.98 3.014-4.004 4.725-8.459 4.725-4.275 0-7.785-2.115-7.785-6.795 0-6.525 6.346-6.75 12.465-7.471 2.34-.27 3.645-.584 3.645-3.148 0-3.826-2.744-4.77-6.074-4.77-3.51 0-6.121 1.619-6.211 5.398h-2.834zm15.119 3.42h-.09c-.359.676-1.619.9-2.385 1.035-4.814.855-10.801.811-10.801 5.355 0 2.834 2.521 4.59 5.176 4.59 4.32 0 8.145-2.746 8.1-7.291v-3.689zm8.551-19.439h2.834v32.129h-2.834v-32.129z"/>
  <g fill="#2E3440">
    <path d="M466.561 126.596l-43.393-55.545V55.64l48.092 62.171h25.844V30.266h-43.465l-9.397-9.399H506.5v105.729z"/>
    <path d="M421.439 20.867l43.395 55.541v15.41L416.741 29.65h-25.843v87.545h43.464l9.4 9.401H381.5V20.867z"/>
  </g>
</svg>
